<?xml version="1.0" encoding="iso-8859-1"?>
<!-- Generator: Adobe Illustrator 19.0.0, SVG Export Plug-In . SVG Version: 6.00 Build 0)  -->
<svg version="1.1" id="Layer_1" xmlns="http://www.w3.org/2000/svg" xmlns:xlink="http://www.w3.org/1999/xlink" x="0px" y="0px"
	 viewBox="0 0 512.002 512.002" style="enable-background:new 0 0 512.002 512.002;" xml:space="preserve">
<circle style="fill:#324A5E;" cx="256.001" cy="256" r="256"/>
<path style="fill:#2B3B4E;" d="M512.001,256c0-16.536-1.586-32.697-4.582-48.359l-91.784-91.784l-296.133,55.217l-24.533,10.324
	l81.801,81.801l-86.625,93.075l156.65,155.545c3.056,0.109,6.12,0.183,9.204,0.183C397.385,512,512.001,397.384,512.001,256z"/>
<path style="fill:#F9B54C;" d="M409.958,113.778H102.046c-4.865,0-8.809,3.944-8.809,8.809v53.577c0,4.865,3.944,8.809,8.809,8.809
	h32.006l12.583,25.164l12.583-25.164h193.574l12.583,25.164l12.583-25.164h32.006c4.865,0,8.809-3.944,8.809-8.809v-53.577
	C418.767,117.722,414.824,113.778,409.958,113.778z"/>
<path style="fill:#F4A200;" d="M409.958,113.778H255.427v71.196h97.361l12.583,25.164l12.583-25.164h32.006
	c4.865,0,8.809-3.944,8.809-8.809v-53.577C418.767,117.722,414.824,113.778,409.958,113.778z"/>
<circle style="fill:#FFFFFF;" cx="364.848" cy="299.632" r="80.396"/>
<g>
	<path style="fill:#E9EFF4;" d="M364.843,219.239c44.403,0,80.396,35.995,80.396,80.396c0,44.401-35.995,80.396-80.396,80.396"/>
	<path style="fill:#E9EFF4;" d="M409.441,341.328h-89.197v-15.117c0-10.745,6.877-20.285,17.07-23.683l16.379-5.46h22.299
		l16.379,5.46c10.193,3.398,17.07,12.938,17.07,23.683L409.441,341.328L409.441,341.328z"/>
</g>
<path style="fill:#D0D1D3;" d="M409.441,326.211c0-10.745-6.877-20.285-17.07-23.683l-16.379-5.46h-11.724v44.26h45.172v-15.117
	H409.441z"/>
<polygon style="fill:#FED8B2;" points="375.992,297.069 364.843,308.217 353.693,297.069 353.693,285.918 375.992,285.918 "/>
<polygon style="fill:#EFC095;" points="364.269,285.918 364.269,307.643 364.843,308.217 375.992,297.069 375.992,285.918 "/>
<path style="fill:#F4E3C3;" d="M342.544,263.62c0-12.316,9.983-22.299,22.299-22.299s22.299,9.983,22.299,22.299
	s-9.983,33.449-22.299,33.449S342.544,275.935,342.544,263.62z"/>
<path style="fill:#FED8B2;" d="M364.843,241.321c-0.193,0-0.381,0.024-0.574,0.029v55.687c0.191,0.01,0.381,0.031,0.574,0.031
	c12.316,0,22.299-21.133,22.299-33.449S377.159,241.321,364.843,241.321z"/>
<path style="fill:#68533E;" d="M387.142,263.62c0-12.316-9.983-22.299-22.299-22.299s-22.299,9.983-22.299,22.299
	c0,4.915,1.593,11.231,4.287,17.051c-0.631-3.35-0.462-6.775-0.131-9.359c14.155-1.11,27.814-7.732,27.814-7.732
	s1.729,3.177,8.213,6.004c0.459,2.638,0.914,6.927,0.124,11.099C385.547,274.86,387.142,268.538,387.142,263.62z"/>
<path style="fill:#57442F;" d="M387.142,263.62c0-12.316-9.983-22.299-22.299-22.299c-0.193,0-0.381,0.024-0.574,0.029v26.229
	c6.089-1.991,10.243-3.999,10.243-3.999s1.729,3.177,8.213,6.004c0.459,2.638,0.914,6.927,0.124,11.099
	C385.547,274.86,387.142,268.536,387.142,263.62z"/>
<polygon style="fill:#F4A200;" points="360.154,340.939 363.279,311.929 366.405,311.929 369.53,340.939 "/>
<polygon style="fill:#F9B54C;" points="366.405,311.929 364.269,311.929 364.269,340.939 369.53,340.939 "/>
<path style="fill:#386895;" d="M348.592,298.768l-11.278,3.76c-10.193,3.398-17.07,12.938-17.07,23.683v15.117h44.023v-1.879
	L348.592,298.768z"/>
<path style="fill:#273B7A;" d="M409.441,326.211c0-10.745-6.877-20.285-17.07-23.683l-11.278-3.76l-16.251,42.17l-0.574-1.489v1.879
	h45.172v-15.117H409.441z"/>
<polygon style="fill:#121149;" points="381.093,298.768 384.182,311.929 378.322,314.859 384.182,321.6 364.843,340.939 "/>
<polygon style="fill:#273B7A;" points="348.592,298.768 345.503,311.929 351.364,314.859 345.503,321.6 364.843,340.939 "/>
<polygon style="fill:#F9B54C;" points="370.996,308.265 366.895,317.936 362.792,317.936 358.689,308.265 "/>
<polygon style="fill:#F4A200;" points="370.996,308.265 364.269,308.265 364.269,317.936 366.895,317.936 "/>
<g>
	<polygon style="fill:#FFFFFF;" points="374.512,311.929 381.093,298.768 375.992,297.069 364.843,308.217 	"/>
	<polygon style="fill:#FFFFFF;" points="355.172,311.929 348.592,298.768 353.693,297.069 364.843,308.217 	"/>
	<circle style="fill:#FFFFFF;" cx="147.153" cy="299.632" r="80.396"/>
</g>
<g>
	<path style="fill:#E9EFF4;" d="M147.16,219.239c44.403,0,80.396,35.995,80.396,80.396c0,44.401-35.995,80.396-80.396,80.396
		V219.239z"/>
	<path style="fill:#E9EFF4;" d="M191.759,341.328h-89.197v-15.117c0-10.745,6.877-20.285,17.07-23.683l16.379-5.46h22.299
		l16.379,5.46c10.193,3.398,17.07,12.938,17.07,23.683L191.759,341.328L191.759,341.328z"/>
</g>
<path style="fill:#D0D1D3;" d="M191.758,326.211c0-10.745-6.877-20.285-17.07-23.683l-16.379-5.46h-11.724v44.26h45.172v-15.117
	H191.758z"/>
<polygon style="fill:#FED8B2;" points="158.311,297.069 147.16,308.217 136.01,297.069 136.01,285.918 158.311,285.918 "/>
<polygon style="fill:#EFC095;" points="146.586,285.918 146.586,307.643 147.16,308.217 158.311,297.069 158.311,285.918 "/>
<path style="fill:#F4E3C3;" d="M124.862,263.62c0-12.316,9.983-22.299,22.299-22.299s22.299,9.983,22.299,22.299
	s-9.983,33.449-22.299,33.449S124.862,275.935,124.862,263.62z"/>
<path style="fill:#FED8B2;" d="M147.16,241.321c-0.193,0-0.381,0.024-0.574,0.029v55.687c0.191,0.01,0.381,0.031,0.574,0.031
	c12.316,0,22.299-21.133,22.299-33.449S159.476,241.321,147.16,241.321z"/>
<path style="fill:#68533E;" d="M169.459,263.62c0-12.316-9.983-22.299-22.299-22.299s-22.299,9.983-22.299,22.299
	c0,4.915,1.593,11.231,4.287,17.051c-0.631-3.35-0.462-6.775-0.131-9.359c14.155-1.11,27.814-7.732,27.814-7.732
	s1.729,3.177,8.213,6.004c0.459,2.638,0.914,6.927,0.124,11.099C167.864,274.86,169.459,268.538,169.459,263.62z"/>
<path style="fill:#57442F;" d="M169.459,263.62c0-12.316-9.983-22.299-22.299-22.299c-0.193,0-0.381,0.024-0.574,0.029v26.229
	c6.089-1.991,10.243-3.999,10.243-3.999s1.729,3.177,8.213,6.004c0.459,2.638,0.914,6.927,0.124,11.099
	C167.864,274.86,169.459,268.536,169.459,263.62z"/>
<polygon style="fill:#F4A200;" points="142.471,340.939 145.597,311.929 148.724,311.929 151.849,340.939 "/>
<polygon style="fill:#F9B54C;" points="148.724,311.929 146.586,311.929 146.586,340.939 151.849,340.939 "/>
<path style="fill:#386895;" d="M130.911,298.768l-11.278,3.76c-10.193,3.398-17.07,12.938-17.07,23.683v15.117h44.023v-1.879
	L130.911,298.768z"/>
<path style="fill:#273B7A;" d="M191.758,326.211c0-10.745-6.877-20.285-17.07-23.683l-11.278-3.76l-16.251,42.17l-0.574-1.489v1.879
	h45.172v-15.117H191.758z"/>
<polygon style="fill:#121149;" points="163.41,298.768 166.501,311.929 160.64,314.859 166.501,321.6 147.16,340.939 "/>
<polygon style="fill:#273B7A;" points="130.909,298.768 127.82,311.929 133.681,314.859 127.82,321.6 147.16,340.939 "/>
<polygon style="fill:#F9B54C;" points="153.315,308.265 149.212,317.936 145.109,317.936 141.006,308.265 "/>
<polygon style="fill:#F4A200;" points="153.313,308.265 146.586,308.265 146.586,317.936 149.212,317.936 "/>
<g>
	<polygon style="fill:#FFFFFF;" points="156.83,311.929 163.41,298.768 158.311,297.069 147.16,308.217 	"/>
	<polygon style="fill:#FFFFFF;" points="137.491,311.929 130.911,298.768 136.01,297.069 147.16,308.217 	"/>
	<rect x="113.779" y="134.896" style="fill:#FFFFFF;" width="284.444" height="5.172"/>
	<rect x="113.779" y="158.168" style="fill:#FFFFFF;" width="284.444" height="5.172"/>
</g>
<g>
	<rect x="255.432" y="134.896" style="fill:#D0D1D3;" width="142.791" height="5.172"/>
	<rect x="255.432" y="158.168" style="fill:#D0D1D3;" width="142.791" height="5.172"/>
</g>
<g>
</g>
<g>
</g>
<g>
</g>
<g>
</g>
<g>
</g>
<g>
</g>
<g>
</g>
<g>
</g>
<g>
</g>
<g>
</g>
<g>
</g>
<g>
</g>
<g>
</g>
<g>
</g>
<g>
</g>
</svg>
