<svg xmlns="http://www.w3.org/2000/svg" viewBox="0 0 512 512"><circle cx="256" cy="256" r="256" fill="#fc6f58"/><path d="M512 256c0-4.542-.122-9.054-.357-13.538L404.677 135.496 201.409 267.492l-95.341 75.181 168.643 168.643C407.359 501.732 512 391.09 512 256z" fill="#f1543f"/><path fill="#2b3b4e" d="M210.23 326.163h91.539v61.026H210.23z"/><path fill="#272525" d="M255.862 326.163h45.913v61.026h-45.913z"/><path d="M397.626 346.505h-283.25c-6.042 0-10.942-4.899-10.942-10.942V143.855c0-6.042 4.899-10.942 10.942-10.942h283.248c6.042 0 10.942 4.899 10.942 10.942v191.709c.001 6.042-4.898 10.941-10.94 10.941z" fill="#324a5e"/><path d="M397.626 132.913H255.859v213.592h141.767c6.042 0 10.942-4.899 10.942-10.942V143.855c-.001-6.044-4.9-10.942-10.942-10.942z" fill="#2b3b4e"/><path fill="#84dbff" d="M116.381 145.394h279.238v188.63H116.381z"/><path fill="#31bafd" d="M255.862 145.394h139.757v188.63H255.862z"/><path fill="#324a5e" d="M217.762 295.1l-49.447-49.443 49.447-49.444 10.969 10.973-38.472 38.471 38.472 38.472z"/><path d="M289.93 295.1l-10.969-10.971 38.472-38.472-38.472-38.471 10.969-10.973 49.447 49.444zm-33.513-98.082l-.56 2.295v65.555l15.634-64.178z" fill="#2b3b4e"/><path d="M233.615 290.623l15.074 3.672 7.168-29.427v-65.555zm-38.641 86.395h122.053v30.513H194.974z" fill="#324a5e"/><path fill="#2b3b4e" d="M255.862 377.018h61.169v30.513h-61.169z"/></svg>