<svg xmlns="http://www.w3.org/2000/svg" viewBox="0 0 512 512"><circle cx="256" cy="256" r="256" fill="#d35933"/><path d="M511.94 260.722l-120-120-143.229 144.191-153.466 79.01 147.749 147.751c4.308.216 8.642.326 13.003.326 139.808 0 253.422-112.073 255.943-251.278z" fill="#b54324"/><path d="M378.213 321.791H147.101c-10.076 0-18.246-8.17-18.246-18.246v-150.83c0-10.076 8.17-18.246 18.246-18.246h231.112c10.076 0 18.246 8.17 18.246 18.246v150.83c0 10.078-8.17 18.246-18.246 18.246z" fill="#d0d1d3"/><path d="M378.213 134.47H261.748v187.323h116.465c10.076 0 18.246-8.17 18.246-18.246V152.716c0-10.078-8.17-18.246-18.246-18.246z" fill="#bfbfbf"/><path d="M116.962 295.031c-8.211 0-14.867 6.656-14.867 14.867v23.788c0 8.211 6.656 14.867 14.867 14.867h144.786v-53.52H116.962v-.002z" fill="#59595b"/><path d="M408.352 295.031H261.746v53.52h146.606c8.211 0 14.867-6.656 14.867-14.867v-23.788c0-8.209-6.656-14.865-14.867-14.865z" fill="#272525"/><path fill="#808183" d="M235.899 295.029h53.527v14.596h-53.527z"/><path fill="#02b2b2" d="M142.239 151.911h240.847v133.792H142.239z"/><path fill="#009995" d="M261.741 151.911h121.328v133.792H261.741z"/><path d="M218.302 371.664H109.823c-9.718 0-17.594-7.878-17.594-17.594V178.824c0-9.718 7.878-17.594 17.594-17.594h108.479c9.718 0 17.594 7.878 17.594 17.594v175.244c.002 9.717-7.877 17.596-17.594 17.596z" fill="#59595b"/><path d="M218.302 161.23h-56.541v210.434h56.541c9.718 0 17.594-7.878 17.594-17.596V178.824c.002-9.717-7.877-17.594-17.594-17.594z" fill="#272525"/><path fill="#02b2b2" d="M102.434 176.821h123.259v165.788H102.434z"/><path fill="#00938f" d="M161.754 176.821h63.94v165.788h-63.94z"/><path d="M279.278 380.978h-57.575c-7.837 0-14.191-6.354-14.191-14.191l.003-116.876c0-7.837 6.354-14.189 14.191-14.189h57.575c7.837 0 14.191 6.354 14.191 14.191l-.003 116.876c-.002 7.836-6.354 14.189-14.191 14.189z" fill="#fff"/><path d="M279.28 235.722h-29.025v145.256h29.024c7.837 0 14.191-6.353 14.191-14.189l.003-116.876c-.002-7.837-6.355-14.191-14.193-14.191z" fill="#d0d1d3"/><path fill="#71e2ef" d="M215.661 248.432h69.68v108.865h-69.68z"/><path fill="#38c6d9" d="M250.259 248.432h35.076v108.865h-35.076z"/></svg>