<svg xmlns="http://www.w3.org/2000/svg" viewBox="0 0 512 512"><circle cx="255.997" cy="255.997" r="255.997" fill="#e84f4f"/><path d="M511.527 239.605L396.768 124.847 157.163 137.3l-38.936 38.936 36.729 36.729-36.572 36.571 40.67 40.67-43.35 30.109 46.345 46.029-29.793 12.137L265.773 512C402.601 506.798 512 394.247 512 256.158c0-5.517-.158-10.877-.473-16.394v-.159z" fill="#c94545"/><g fill="#c5c6c6"><path d="M250.014 131.781h12.137v247.492h-12.137z"/><path d="M132.261 366.195h247.592v12.145H132.261z"/></g><circle cx="255.997" cy="372.339" r="19.547" fill="#00cc96"/><path d="M255.999 352.631c10.877 0 19.547 8.827 19.547 19.547s-8.67 19.389-19.389 19.547h-.315v-39.251l.157.157z" fill="#12b589"/><path d="M124.69 120.118h262.62c6.529 0 11.822 5.293 11.822 11.822v34.364c0 6.529-5.293 11.822-11.822 11.822H124.69c-6.529 0-11.822-5.293-11.822-11.822v-34.363c-.001-6.53 5.292-11.823 11.822-11.823z" fill="#ffd630"/><path d="M397.557 172.453a11.856 11.856 0 0 1-10.246 5.833H124.69c-4.257 0-8.197-2.364-10.246-5.833h283.113z" fill="#e7a20b"/><path d="M231.408 131.783h64.474a4.257 4.257 0 0 1 4.257 4.257v8.827a4.257 4.257 0 0 1-4.257 4.257h-64.473a4.257 4.257 0 0 1-4.257-4.257v-8.827a4.258 4.258 0 0 1 4.256-4.257z" fill="#f7f7f8"/><path d="M124.216 128.158h14.187v9.301h-14.187v-9.301zm62.582 31.054h14.187v9.301h-14.187v-9.301zm-20.808 0h14.187v9.301H165.99v-9.301zm-20.808 0h14.187v9.301h-14.187v-9.301zm-20.807 0h14.187v9.301h-14.187v-9.301zm62.581-15.449h14.187v9.301h-14.187v-9.301zm-20.808 0h14.187v9.301h-14.187v-9.301zm-20.809 0h14.187v9.301h-14.187v-9.301zm-20.807 0h14.187v9.301h-14.187v-9.301zm62.581-15.448H201.3v9.301h-14.187v-9.301zm-20.808 0h14.187v9.301h-14.187v-9.301zm-20.807 0h14.187v9.301h-14.187v-9.301zm179.074-.157h10.877v40.04h-10.877v-40.04zm52.492 0h10.877v40.04h-10.877v-40.04zm-17.498 0h10.877v40.04h-10.877v-40.04zm-17.498 0h10.877v40.04h-10.877v-40.04z" fill="#fff"/><path d="M124.69 193.261h262.62c6.529 0 11.822 5.293 11.822 11.822v34.364c0 6.529-5.293 11.822-11.822 11.822H124.69c-6.529 0-11.822-5.293-11.822-11.822v-34.364c-.001-6.529 5.292-11.822 11.822-11.822z" fill="#ffd630"/><path d="M397.557 245.596a11.856 11.856 0 0 1-10.246 5.833H124.69c-4.257 0-8.197-2.364-10.246-5.833h283.113z" fill="#e7a20b"/><path d="M231.408 204.926h64.474a4.257 4.257 0 0 1 4.257 4.257v8.827a4.257 4.257 0 0 1-4.257 4.257h-64.473a4.257 4.257 0 0 1-4.257-4.257v-8.827a4.257 4.257 0 0 1 4.256-4.257z" fill="#f7f7f8"/><path d="M124.216 201.301h14.187v9.301h-14.187v-9.301zm62.582 31.054h14.187v9.301h-14.187v-9.301zm-20.808 0h14.187v9.301H165.99v-9.301zm-20.808 0h14.187v9.301h-14.187v-9.301zm-20.807 0h14.187v9.301h-14.187v-9.301zm62.581-15.449h14.187v9.301h-14.187v-9.301zm-20.808 0h14.187v9.301h-14.187v-9.301zm-20.809 0h14.187v9.301h-14.187v-9.301zm-20.807 0h14.187v9.301h-14.187v-9.301zm62.581-15.448H201.3v9.301h-14.187v-9.301zm-20.808 0h14.187v9.301h-14.187v-9.301zm-20.807 0h14.187v9.301h-14.187v-9.301zm179.074-.157h10.877v40.04h-10.877v-40.04zm52.492 0h10.877v40.04h-10.877v-40.04zm-17.498 0h10.877v40.04h-10.877v-40.04zm-17.498 0h10.877v40.04h-10.877v-40.04z" fill="#fff"/><path d="M124.69 266.404h262.62c6.529 0 11.822 5.293 11.822 11.822v34.364c0 6.529-5.293 11.822-11.822 11.822H124.69c-6.529 0-11.822-5.293-11.822-11.822v-34.364c-.001-6.529 5.292-11.822 11.822-11.822z" fill="#ffd630"/><path d="M397.557 318.739a11.856 11.856 0 0 1-10.246 5.833H124.69c-4.257 0-8.197-2.364-10.246-5.833h283.113z" fill="#e7a20b"/><path d="M231.408 278.069h64.474a4.257 4.257 0 0 1 4.257 4.257v8.827a4.257 4.257 0 0 1-4.257 4.257h-64.473a4.257 4.257 0 0 1-4.257-4.257v-8.827a4.257 4.257 0 0 1 4.256-4.257z" fill="#f7f7f8"/><path d="M124.216 274.286h14.187v9.301h-14.187v-9.301zm62.582 31.054h14.187v9.301h-14.187v-9.301zm-20.808 0h14.187v9.301H165.99v-9.301zm-20.808 0h14.187v9.301h-14.187v-9.301zm-20.807 0h14.187v9.301h-14.187v-9.301zm62.581-15.449h14.187v9.301h-14.187v-9.301zm-20.808 0h14.187v9.301h-14.187v-9.301zm-20.809 0h14.187v9.301h-14.187v-9.301zm-20.807 0h14.187v9.301h-14.187v-9.301zm62.581-15.448H201.3v9.301h-14.187v-9.301zm-20.808 0h14.187v9.301h-14.187v-9.301zm-20.807 0h14.187v9.301h-14.187v-9.301zm179.074 0h10.877v40.04h-10.877v-40.04zm52.492 0h10.877v40.04h-10.877v-40.04zm-17.498 0h10.877v40.04h-10.877v-40.04zm-17.498 0h10.877v40.04h-10.877v-40.04z" fill="#fff"/></svg>